<?xml version="1.0" standalone="no"?>
<!DOCTYPE svg PUBLIC "-//W3C//DTD SVG 20010904//EN"
 "http://www.w3.org/TR/2001/REC-SVG-20010904/DTD/svg10.dtd">
<svg version="1.0" xmlns="http://www.w3.org/2000/svg"
 width="1024.000000pt" height="1024.000000pt" viewBox="0 0 1024.000000 1024.000000"
 preserveAspectRatio="xMidYMid meet">
<metadata>
Created by potrace 1.16, written by Peter Selinger 2001-2019
</metadata>
<g transform="translate(0.000000,1024.000000) scale(0.100000,-0.100000)"
fill="#000000" stroke="none">
<path d="M3677 8513 c-19 -44 -13 -178 12 -263 32 -109 40 -127 67 -145 34
-22 41 -18 15 9 -33 35 -71 167 -78 266 -4 65 -3 82 6 74 7 -6 13 -20 14 -32
0 -11 5 -18 9 -16 4 3 8 1 8 -3 0 -12 81 -95 114 -116 15 -10 24 -22 21 -27
-4 -6 1 -7 11 -3 13 5 15 3 9 -8 -4 -8 -5 -11 0 -7 14 13 44 -11 40 -31 -3
-14 1 -18 12 -14 12 5 12 7 1 14 -7 5 -8 9 -2 9 18 0 24 -13 13 -27 -8 -9 -8
-13 -1 -13 6 0 13 4 17 10 3 5 13 6 22 3 14 -6 14 -8 -3 -20 -10 -7 -13 -13
-8 -13 6 0 14 4 20 9 5 6 30 5 65 -3 34 -8 62 -10 70 -5 8 5 23 9 34 9 11 0
-11 -16 -50 -34 -38 -19 -72 -33 -76 -31 -3 2 -6 -2 -6 -10 0 -21 15 -19 97
11 38 14 75 22 82 18 7 -5 8 -3 3 6 -6 10 -4 12 9 7 9 -4 15 -3 12 2 -3 5 5
16 19 25 19 13 30 14 48 6 18 -8 19 -8 6 2 -15 10 -12 15 22 40 22 16 45 26
51 22 6 -4 8 -3 5 3 -4 5 5 20 20 33 21 18 27 19 35 9 8 -11 9 -11 5 1 -4 15
15 40 30 40 4 0 13 8 19 18 15 24 170 100 219 107 l40 6 -48 -21 c-27 -11 -53
-18 -58 -15 -5 3 -6 0 -3 -8 6 -17 -72 -71 -88 -61 -8 5 -5 10 8 15 14 6 15 8
3 8 -8 1 -24 -5 -35 -13 -18 -14 -18 -14 0 -13 34 3 27 -17 -17 -47 -56 -38
-83 -74 -68 -89 8 -8 31 -1 89 28 42 22 91 50 108 62 17 13 36 23 42 23 6 0
17 8 24 18 15 22 98 39 98 21 0 -7 10 -9 26 -5 16 4 23 3 20 -3 -4 -5 2 -9 13
-8 15 1 17 5 10 13 -8 9 -4 11 13 8 46 -10 193 -46 208 -52 19 -7 18 -7 58
-16 17 -4 32 -11 32 -15 0 -4 9 -7 20 -8 10 -1 57 -19 102 -41 46 -22 92 -42
103 -46 11 -3 103 -49 205 -102 208 -107 300 -151 336 -160 13 -3 22 -10 19
-14 -3 -5 5 -6 17 -2 21 5 22 4 8 -14 -14 -18 -14 -18 2 -5 15 11 28 11 88 -4
69 -17 223 -19 245 -3 6 3 22 8 35 10 14 2 32 7 40 12 8 5 2 -4 -13 -19 -15
-15 -34 -24 -42 -21 -8 3 -14 1 -12 -5 1 -6 -10 -20 -26 -32 -21 -16 -30 -18
-39 -9 -9 9 -8 12 7 12 10 0 16 3 12 6 -3 4 -14 4 -23 0 -13 -5 -14 -9 -4 -21
10 -12 7 -17 -16 -26 -34 -14 -75 -31 -88 -38 -5 -2 -6 1 -2 7 4 7 -9 3 -28
-9 -20 -12 -36 -27 -36 -34 0 -14 57 -31 67 -21 4 3 0 6 -8 7 -8 0 3 7 25 15
21 7 43 11 49 7 5 -3 8 -2 4 3 -3 5 6 15 20 21 l25 12 -18 -22 c-59 -69 -99
-106 -120 -111 -13 -4 -24 -10 -24 -15 0 -5 -15 -12 -32 -16 -83 -16 -138 -49
-172 -104 -31 -49 -41 -90 -22 -97 19 -7 96 17 181 57 66 31 111 38 160 26 11
-3 25 -6 30 -7 6 -1 1 -6 -10 -11 -16 -7 -14 -8 10 -4 19 3 46 -4 74 -19 l45
-23 -110 -5 c-104 -4 -113 -6 -156 -36 -26 -18 -51 -32 -56 -32 -6 0 -12 -7
-16 -15 -3 -8 -19 -23 -36 -33 -27 -17 -28 -21 -16 -37 20 -28 120 -23 215 9
41 15 84 26 95 26 18 0 19 2 6 11 -11 8 -5 9 26 6 47 -5 165 -57 158 -69 -3
-4 1 -5 9 -2 9 3 22 -4 31 -18 9 -13 18 -21 19 -18 6 11 106 -70 102 -82 -3
-7 5 -19 17 -27 23 -14 23 -14 4 8 -24 27 -13 27 30 0 20 -12 31 -25 27 -32
-5 -8 -8 -8 -11 1 -2 7 -8 12 -14 12 -6 0 -5 -6 2 -15 9 -11 16 -12 26 -5 9 8
23 4 53 -16 22 -14 38 -30 35 -35 -3 -5 2 -6 11 -3 9 4 25 -2 36 -12 12 -11
23 -18 25 -16 12 7 24 0 18 -10 -4 -6 -3 -8 3 -5 14 9 76 -17 66 -27 -5 -4 -1
-7 7 -6 8 1 24 2 35 1 20 -2 20 -2 1 -16 -11 -8 -15 -15 -10 -15 6 0 15 5 21
11 9 9 71 -5 198 -46 6 -2 -18 -4 -52 -4 -34 -1 -64 3 -68 9 -3 5 -12 7 -20 4
-8 -3 -47 5 -87 19 -87 30 -171 42 -232 33 -90 -14 -57 -59 56 -75 62 -9 178
-55 178 -72 0 -13 -92 -39 -139 -39 -43 0 -121 13 -233 40 -69 17 -122 10
-126 -16 -2 -16 5 -23 35 -32 42 -14 63 -28 79 -57 6 -11 31 -26 55 -35 74
-27 123 -50 132 -63 6 -8 10 -9 13 -1 3 7 24 1 60 -17 30 -16 62 -29 70 -29 8
0 14 -5 14 -11 0 -5 4 -8 8 -5 15 9 83 -14 76 -26 -4 -7 -9 -5 -15 3 -7 11
-12 12 -27 2 -15 -9 -22 -9 -31 0 -9 9 -11 8 -6 -5 8 -21 17 -22 33 -6 6 6 15
9 19 5 3 -4 4 -8 2 -10 -125 -94 -232 -167 -244 -167 -9 0 -32 -8 -53 -19 -20
-10 -53 -21 -73 -25 -21 -4 -43 -13 -50 -22 -24 -30 5 -38 148 -40 83 -2 139
-7 141 -13 2 -5 9 -8 17 -5 15 6 60 -20 88 -50 23 -26 22 -27 -14 -9 -34 17
-307 36 -322 22 -15 -13 4 -49 34 -64 16 -9 29 -18 29 -20 0 -6 -47 15 -76 32
-11 7 -54 25 -95 40 -74 28 -75 28 -319 26 l-245 -1 -35 38 c-19 22 -43 56
-54 77 -10 21 -22 46 -27 55 -5 10 -9 54 -9 97 0 87 -4 94 -57 97 -31 2 -46
-10 -22 -18 5 -2 -1 -19 -15 -38 -14 -19 -37 -56 -51 -81 -15 -25 -33 -46 -40
-46 -14 0 -14 7 1 75 4 15 8 36 9 47 1 11 12 82 24 157 25 161 33 369 14 375
-14 5 -40 -49 -72 -147 -11 -36 -18 -52 -15 -36 5 27 4 27 -12 12 -13 -14 -14
-22 -6 -40 8 -17 3 -48 -18 -130 -15 -58 -30 -105 -33 -104 -3 2 -9 -1 -14 -6
-5 -5 -3 -6 5 -2 15 9 15 1 0 -63 -8 -35 -14 -47 -20 -39 -6 9 -7 6 -3 -8 3
-12 -5 -43 -20 -75 -13 -30 -37 -93 -52 -141 -26 -80 -43 -110 -43 -74 0 8 -3
16 -7 18 -5 2 -17 21 -28 43 -23 45 -161 255 -179 270 -31 28 -37 44 -26 67
10 21 10 22 -4 5 -14 -18 -15 -17 -32 15 -9 18 -20 35 -24 38 -16 11 -59 103
-53 114 3 6 3 8 -2 4 -11 -11 -58 50 -49 64 4 7 4 10 -1 6 -10 -9 -76 93 -68
106 3 5 2 6 -4 3 -13 -8 -36 40 -27 56 4 7 4 9 -1 5 -4 -4 -16 3 -26 15 l-18
22 -1 -23 c0 -35 61 -148 206 -379 200 -318 243 -410 279 -598 20 -103 32
-290 18 -282 -5 3 -13 55 -16 114 -6 108 -33 252 -60 329 -38 106 -101 218
-267 479 -42 66 -96 156 -120 200 -23 44 -49 87 -56 95 -18 22 -84 162 -84
180 0 13 2 13 10 0 5 -8 12 -11 16 -8 5 6 -37 103 -109 248 -7 14 -20 26 -30
28 -13 3 -17 -4 -17 -28 0 -63 22 -120 65 -168 30 -34 45 -60 50 -91 7 -45 60
-186 77 -208 5 -7 6 -18 2 -24 -4 -7 -3 -9 2 -6 5 3 31 -31 57 -76 26 -45 56
-93 65 -107 l17 -24 -27 19 c-15 11 -28 28 -28 38 0 10 -4 16 -9 13 -5 -4 -14
6 -20 21 -10 26 -11 26 -7 3 5 -23 4 -24 -9 -7 -7 11 -12 24 -11 30 2 7 1 9
-1 5 -9 -15 -24 -8 -35 17 -6 13 -15 22 -19 19 -5 -3 -6 3 -2 12 4 10 2 15 -4
11 -5 -3 -27 17 -49 46 -21 29 -46 60 -54 69 -8 9 -32 50 -53 90 -21 40 -53
98 -72 128 -19 30 -37 71 -40 90 -11 61 -13 64 -31 49 -22 -18 -12 -86 26
-192 17 -44 30 -91 30 -103 0 -13 4 -25 9 -29 5 -3 13 -19 16 -37 7 -31 53
-121 87 -170 10 -14 18 -31 18 -37 0 -7 7 -14 16 -18 9 -3 13 -12 9 -21 -3 -9
-3 -13 1 -9 8 8 34 -11 34 -25 0 -5 -5 -6 -11 -2 -8 4 -8 0 0 -15 14 -25 22
-28 15 -3 -3 9 8 1 25 -18 17 -19 29 -40 27 -47 -3 -7 1 -10 8 -7 6 2 30 -15
51 -38 44 -49 127 -158 120 -158 -3 0 -29 21 -59 48 -29 26 -132 109 -229 185
-178 140 -285 242 -334 320 -14 23 -37 59 -51 79 -13 20 -25 48 -26 62 0 13
-5 22 -10 18 -5 -3 -7 5 -4 16 4 12 3 20 -2 17 -11 -7 -39 152 -50 291 -5 67
-13 129 -16 138 -13 33 -24 2 -24 -67 -1 -40 -5 -92 -11 -117 -6 -25 -15 -71
-21 -102 -6 -32 -15 -58 -20 -58 -5 0 -7 -4 -4 -9 3 -5 -8 -65 -26 -132 -17
-68 -31 -141 -30 -162 2 -21 -1 -36 -5 -34 -4 3 -7 -18 -5 -46 2 -38 0 -48 -7
-37 -6 8 -11 23 -11 33 0 10 -4 16 -10 12 -5 -3 -13 11 -19 32 -5 21 -14 56
-20 78 -24 94 -34 253 -23 365 11 111 69 310 84 288 7 -9 8 -7 4 7 -3 12 1 47
9 78 8 32 15 65 15 72 0 26 -30 16 -48 -15 -9 -17 -23 -28 -30 -25 -13 5 -81
-81 -82 -103 0 -8 -6 -26 -14 -40 -41 -76 -52 -164 -55 -425 -1 -60 -4 -106
-8 -104 -5 3 -9 -14 -10 -36 -1 -23 -6 -43 -12 -45 -6 -2 -11 -12 -11 -22 0
-27 -95 -185 -109 -182 -7 1 -10 -2 -6 -7 3 -6 -4 -30 -17 -53 -12 -24 -23
-46 -24 -50 -1 -5 -2 -11 -3 -15 -2 -9 -72 155 -75 175 -1 7 -8 18 -14 24 -7
7 -12 20 -12 29 0 26 -36 66 -49 54 -18 -18 -13 -79 18 -195 17 -63 31 -116
31 -118 0 -2 -5 0 -12 4 -8 5 -9 2 -4 -12 4 -10 9 -29 11 -42 2 -24 15 -43 15
-24 0 7 4 12 8 12 7 0 34 -82 28 -87 -5 -6 -91 122 -112 167 -64 139 -110 346
-100 458 3 41 10 81 15 90 6 11 8 -4 4 -46 -3 -34 -3 -62 0 -62 3 0 21 24 41
53 64 92 71 102 88 121 23 25 22 32 -2 66 l-21 29 33 44 c26 36 38 44 56 40
16 -4 22 -1 22 11 0 9 5 16 10 16 7 0 7 6 0 20 -11 21 -40 28 -40 10 0 -11
-56 -71 -81 -86 -8 -5 -25 -22 -37 -38 -12 -16 -22 -24 -22 -19 0 5 6 15 13
23 10 12 9 12 -5 1 -10 -7 -18 -21 -18 -31 0 -9 -10 -25 -22 -36 -22 -19 -22
-19 -8 0 14 18 14 18 -7 6 -11 -8 -19 -18 -17 -24 5 -15 -51 -98 -60 -89 -4 4
-4 -1 0 -11 6 -15 4 -17 -6 -11 -10 6 -12 4 -7 -8 3 -9 2 -19 -3 -22 -5 -3
-12 4 -15 16 -6 19 -7 20 -21 2 -7 -10 -13 -22 -13 -28 0 -5 6 -2 13 8 12 16
14 16 20 1 3 -9 3 -22 -2 -28 -14 -18 -52 -132 -52 -155 0 -14 -4 -20 -12 -15
-8 5 -9 0 -6 -14 4 -13 2 -20 -4 -16 -5 3 -9 0 -7 -7 3 -26 -1 -40 -10 -35 -5
3 -8 -2 -7 -12 0 -9 -5 -16 -12 -14 -7 1 -12 -5 -10 -15 2 -10 -2 -17 -9 -16
-7 2 -10 -3 -7 -10 6 -17 -43 -60 -50 -44 -2 7 -5 0 -5 -14 -1 -14 -11 -34
-23 -45 -16 -13 -19 -14 -10 -3 7 10 15 25 17 35 2 11 14 57 26 104 21 81 36
300 23 334 -3 9 -15 11 -36 7 -38 -8 -38 -10 -73 -211 -29 -163 -44 -222 -56
-214 -5 3 -6 -1 -3 -9 4 -12 -53 -187 -61 -187 -2 0 -4 86 -5 191 0 106 -3
196 -6 200 -8 14 -32 -2 -42 -29 -6 -15 -13 -44 -17 -65 -3 -21 -13 -41 -20
-44 -13 -4 -15 -57 -13 -337 1 -285 -1 -342 -17 -411 -9 -44 -21 -84 -26 -89
-5 -6 -9 -24 -10 -40 -2 -51 -48 278 -63 449 -6 62 -1 156 19 350 5 46 4 56
-5 43 -6 -10 -17 -18 -25 -18 -7 0 -19 -16 -26 -35 -7 -19 -17 -35 -22 -35 -4
0 -5 -5 -2 -10 4 -6 2 -16 -3 -23 -5 -7 -15 -36 -22 -64 -7 -32 -17 -53 -26
-53 -24 0 -115 40 -148 65 -18 14 -39 25 -47 25 -8 0 -20 5 -26 11 -9 9 -23 9
-58 0 -25 -6 -51 -8 -57 -5 -6 4 51 20 128 35 76 15 165 37 198 48 45 16 55
17 46 6 -11 -13 -10 -14 3 -9 17 6 33 41 24 51 -3 2 -52 11 -109 18 -57 7
-119 19 -138 26 -41 15 -140 60 -140 64 0 2 31 10 68 20 81 19 155 64 143 84
-9 15 -7 15 -171 -18 -58 -12 -127 -21 -155 -20 -48 1 -47 2 27 14 139 23 221
60 396 180 62 42 135 87 162 101 28 14 50 29 50 35 0 5 19 30 43 56 38 42 40
46 17 40 -14 -4 -30 -7 -36 -7 -6 0 -40 -19 -75 -42 -113 -73 -308 -159 -358
-158 -9 1 15 12 53 25 190 68 246 105 764 498 118 90 379 213 507 239 28 6 54
15 60 19 15 14 -45 10 -98 -6 -26 -8 -80 -15 -120 -16 -40 -1 -80 -6 -90 -11
-9 -5 -54 -7 -100 -6 l-82 3 75 23 c41 13 138 49 215 79 146 58 134 56 335 64
97 3 181 -2 175 -11 -4 -6 5 -8 22 -4 15 3 49 1 76 -4 26 -5 50 -6 52 -2 3 5
-41 19 -97 33 -72 17 -102 28 -100 37 2 10 0 11 -10 2 -7 -6 -58 -12 -113 -15
-116 -5 -190 -21 -330 -73 -274 -102 -358 -124 -477 -124 -32 0 -58 -4 -58 -9
0 -12 168 -26 313 -25 121 0 154 -6 105 -21 -47 -14 -205 -99 -265 -141 -33
-24 -130 -99 -215 -165 -225 -179 -407 -292 -543 -338 -34 -11 -117 -25 -190
-31 -149 -13 -266 -38 -242 -51 46 -26 297 -28 461 -3 73 11 56 -12 -50 -68
-103 -54 -200 -80 -299 -80 -98 0 -125 -6 -125 -27 0 -12 16 -25 49 -39 27
-11 84 -45 127 -75 83 -57 166 -99 222 -111 17 -4 32 -11 32 -16 0 -10 -29
-17 -115 -26 -67 -7 -145 -36 -145 -55 0 -5 11 -7 23 -3 31 7 132 -34 214 -87
35 -23 63 -44 63 -48 -1 -13 -177 -75 -212 -74 -21 0 -38 -1 -38 -2 0 -2 30
-19 66 -39 36 -20 94 -59 128 -87 72 -59 149 -99 188 -99 37 0 35 -9 -6 -42
-78 -62 -154 -216 -205 -416 -26 -99 -34 -162 -46 -335 -16 -227 -32 -328 -60
-371 -20 -31 -12 -49 9 -20 8 10 32 52 53 92 21 41 50 84 64 96 15 12 39 42
54 65 33 50 47 43 35 -18 -17 -94 15 -229 92 -390 84 -177 100 -230 88 -305
-4 -26 -4 -49 0 -51 10 -6 81 224 80 262 0 48 17 49 41 1 28 -55 126 -201 172
-256 55 -66 126 -184 148 -248 22 -62 29 -147 15 -176 -6 -13 -4 -18 8 -18 9
0 16 8 16 19 0 10 7 38 16 62 10 28 15 77 15 137 0 85 2 92 16 80 29 -24 111
-157 128 -209 9 -27 22 -48 28 -47 7 2 24 28 40 58 29 58 35 123 16 179 -6 18
-9 35 -5 38 3 3 39 -27 81 -67 42 -42 71 -76 65 -80 -6 -4 -8 -14 -4 -23 6
-18 -12 -37 -124 -135 -60 -52 -340 -390 -419 -507 -22 -33 -46 -76 -53 -97
-12 -32 -11 -39 5 -65 11 -15 21 -48 23 -73 3 -31 16 -63 43 -104 40 -61 47
-92 27 -129 -6 -12 -51 -65 -100 -117 -84 -90 -158 -206 -158 -249 0 -34 -66
-120 -283 -371 -60 -69 -122 -149 -139 -178 -17 -30 -38 -56 -46 -59 -8 -4
-26 -31 -39 -62 -13 -31 -40 -72 -58 -91 -46 -48 -55 -77 -55 -179 0 -48 -4
-91 -9 -97 -5 -5 -24 -70 -41 -144 -75 -325 -217 -781 -289 -923 -43 -85 -49
-93 -90 -108 -24 -9 -48 -24 -54 -34 -15 -28 12 -455 29 -455 17 0 19 156 4
300 -14 126 -10 141 43 163 31 12 52 31 72 62 21 34 44 53 89 76 84 43 109 62
198 147 72 69 77 73 82 51 3 -13 19 -96 35 -184 17 -88 45 -232 62 -320 24
-128 29 -174 24 -227 l-7 -68 26 0 c26 0 26 1 26 71 0 39 9 152 20 252 17 154
40 423 40 464 0 17 37 1 110 -48 209 -137 376 -223 700 -357 107 -44 216 -90
241 -101 l46 -21 7 -61 c3 -34 6 -93 6 -130 0 -67 1 -69 26 -69 19 0 24 4 20
18 -2 9 -7 67 -11 127 l-6 110 68 1 c37 1 88 9 112 18 24 9 45 15 46 14 1 -2
5 -33 9 -69 6 -63 5 -66 -18 -77 -13 -6 -32 -24 -42 -41 -10 -17 -23 -32 -29
-34 -5 -3 -32 6 -59 19 -27 13 -52 22 -55 19 -9 -10 54 -66 84 -74 40 -11 60
1 95 55 l28 45 6 -28 c3 -15 8 -45 12 -65 5 -29 11 -38 26 -38 16 0 19 5 15
23 -10 41 -29 242 -26 264 3 19 50 45 264 149 551 267 776 380 945 477 230
131 275 153 403 198 150 54 147 55 149 -33 l1 -73 10 77 c11 88 -5 78 162 103
177 26 254 17 329 -40 28 -21 39 -42 66 -128 38 -120 124 -326 190 -452 82
-158 181 -298 278 -392 19 -19 30 -38 26 -44 -4 -7 -3 -9 3 -6 6 4 40 -20 74
-53 35 -33 61 -60 58 -60 -3 0 -17 10 -30 21 -53 48 -203 138 -359 217 -91 46
-164 87 -163 92 2 5 -3 7 -11 4 -15 -6 -129 49 -261 124 -164 94 -341 233
-544 427 l-84 80 51 -66 c72 -92 283 -294 383 -366 113 -81 206 -133 454 -254
227 -111 377 -192 396 -215 6 -8 16 -14 21 -14 5 0 29 -13 53 -30 34 -24 54
-30 94 -30 48 0 50 1 42 23 -12 30 -80 167 -179 359 -80 155 -129 287 -153
414 -20 111 -17 110 151 -58 256 -254 317 -301 438 -332 77 -20 251 -46 314
-46 26 0 50 -5 53 -10 7 -11 -42 -133 -107 -264 -40 -83 -42 -111 -4 -63 22
28 134 245 155 300 9 22 17 27 43 27 18 0 60 13 93 29 149 70 304 318 464 741
38 102 95 249 127 327 l57 142 23 -49 c28 -62 92 -148 162 -220 29 -30 60 -62
68 -71 13 -14 10 -27 -22 -110 -36 -96 -74 -255 -74 -312 1 -44 11 -22 45 98
l29 100 13 -99 c15 -126 37 -193 84 -267 39 -60 130 -159 162 -176 16 -8 14
-16 -22 -94 -45 -97 -76 -207 -86 -297 -3 -35 -9 -70 -12 -78 -3 -9 2 -14 14
-14 21 0 33 39 48 155 l7 50 22 -61 c35 -96 60 -139 84 -142 12 -2 22 -2 22 0
0 2 -16 35 -35 74 -19 38 -44 96 -55 130 -23 67 -25 58 40 200 17 35 30 69 30
74 0 5 -21 25 -46 44 -85 65 -162 169 -204 276 -10 25 -28 91 -39 147 l-22
102 36 91 c20 50 33 99 31 108 -3 9 -38 49 -77 87 -82 81 -154 178 -172 232
-9 27 -12 95 -10 229 2 143 -1 194 -10 202 -6 5 -36 17 -66 27 -29 10 -67 30
-85 45 l-31 28 -7 164 c-3 90 -7 184 -7 210 -1 45 -3 48 -68 99 -38 29 -145
129 -240 222 l-171 168 -104 10 c-57 5 -130 17 -162 25 -111 29 -259 116 -456
270 -60 47 -132 92 -196 122 -56 26 -109 54 -119 62 -32 27 -47 82 -52 190 -2
58 -9 115 -15 128 -8 16 -31 28 -82 43 -85 25 -115 40 -184 91 -66 49 -92 90
-93 148 -1 25 -4 55 -7 68 -6 21 -132 158 -132 143 0 -3 23 -35 50 -70 47 -61
50 -68 50 -123 0 -96 36 -152 140 -219 70 -45 115 -65 164 -75 63 -11 76 -32
76 -122 0 -42 4 -92 9 -110 11 -38 9 -39 -30 -9 -28 20 -42 22 -142 22 -109 0
-114 -1 -187 -37 -133 -65 -323 -203 -444 -324 -84 -83 -234 -253 -352 -399
-174 -216 -296 -355 -307 -348 -5 3 -7 2 -4 -4 12 -20 -254 -311 -418 -455
-103 -91 -197 -141 -296 -158 -72 -13 -298 -1 -397 20 l-53 12 5 41 c3 23 8
71 11 107 9 101 5 96 98 103 153 12 316 68 437 150 80 54 305 267 520 492 243
254 327 360 563 713 27 41 47 76 44 78 -6 6 -17 -9 -149 -186 -55 -74 -110
-147 -122 -161 -11 -14 -32 -41 -46 -59 -114 -153 -484 -544 -504 -533 -6 3
-8 3 -4 -2 11 -11 -12 -36 -25 -28 -5 3 -7 1 -4 -4 8 -13 -27 -46 -37 -36 -4
5 -6 3 -4 -3 6 -21 -203 -208 -292 -262 -120 -72 -284 -122 -401 -122 -56 0
-54 -6 -34 105 8 44 14 133 15 198 0 108 2 118 18 113 48 -15 248 -27 337 -21
187 13 308 58 456 170 99 75 373 351 483 487 21 26 43 45 49 41 6 -4 7 -1 2 6
-4 8 4 25 22 44 74 81 225 291 337 470 47 76 86 140 86 142 0 15 59 93 65 87
5 -4 5 -2 1 5 -3 7 18 61 48 120 70 138 106 221 106 242 -1 9 -27 -38 -59
-104 -32 -66 -84 -163 -116 -215 -32 -52 -67 -111 -78 -130 -36 -60 -187 -281
-249 -363 -32 -43 -58 -81 -58 -84 0 -3 -30 -44 -67 -92 -190 -243 -495 -559
-627 -650 -163 -112 -305 -148 -548 -137 -80 4 -160 11 -177 17 -30 11 -31 13
-31 67 0 34 -12 97 -29 153 -38 124 -67 364 -46 373 6 3 5 8 -3 14 -11 8 -11
10 1 15 8 3 20 0 27 -6 9 -9 11 -9 7 -1 -4 8 5 14 26 18 18 3 58 27 89 54 138
114 137 148 -4 295 -26 27 -45 54 -41 60 3 5 1 7 -5 4 -12 -8 -42 2 -42 14 0
4 62 43 138 85 244 136 295 167 407 242 61 41 138 91 172 112 35 21 84 56 110
78 233 190 287 236 351 297 141 135 185 174 192 170 4 -3 7 3 6 13 0 10 6 16
16 16 10 -1 15 3 12 8 -3 5 46 62 109 126 129 132 187 196 237 266 l34 47 22
-108 c22 -111 75 -264 125 -364 18 -36 51 -77 90 -112 l63 -56 -29 -91 c-24
-79 -27 -103 -22 -167 6 -80 11 -93 28 -76 8 8 8 20 1 42 -13 38 -3 99 32 199
32 92 32 107 0 137 l-26 24 51 85 c29 47 56 99 62 115 38 109 54 -107 19 -259
-11 -47 -31 -121 -44 -165 l-25 -80 25 30 c14 17 49 62 79 100 29 39 103 129
165 200 153 179 233 294 255 369 22 74 29 165 15 215 -6 23 -9 45 -6 49 9 9
219 -216 248 -266 15 -26 30 -67 33 -92 11 -82 21 -91 29 -25 4 33 14 96 23
140 11 50 17 129 17 213 0 72 3 132 6 132 10 0 70 -129 70 -150 0 -11 4 -20 9
-20 15 0 23 123 11 193 -19 122 -64 213 -161 328 -32 39 -57 75 -54 79 6 10
110 -15 205 -49 85 -31 184 -92 201 -122 15 -29 32 -23 26 9 -10 52 -47 139
-80 188 -47 71 -160 188 -220 226 l-52 33 31 3 c17 2 58 -7 90 -18 73 -27 104
-35 104 -25 0 4 -31 48 -69 98 -68 91 -125 137 -169 137 -34 0 -33 15 1 35 56
33 180 127 236 179 54 52 117 134 108 142 -3 3 -31 -5 -63 -16 -33 -12 -71
-24 -86 -27 -34 -6 -98 4 -98 17 0 4 19 18 43 29 23 11 78 52 122 91 102 90
168 133 228 150 49 13 63 30 24 30 -33 0 -298 73 -397 110 -113 41 -239 112
-385 216 -66 48 -142 99 -168 114 -27 15 -44 31 -38 34 6 4 36 11 68 16 31 5
73 17 92 26 l36 17 -60 13 c-114 24 -148 35 -239 73 -50 21 -100 41 -110 45
-18 6 -16 10 16 44 35 36 137 212 153 262 4 14 40 56 79 93 39 38 62 65 51 62
-11 -4 -42 -16 -70 -26 -239 -91 -437 -54 -810 151 -71 39 -154 82 -183 95
-29 14 -85 40 -125 59 -114 54 -233 92 -349 112 -60 10 -104 22 -100 26 5 5
67 13 138 18 71 5 131 10 134 10 3 0 -13 9 -35 19 -53 24 -203 51 -281 51
-136 0 -284 -59 -418 -169 -161 -131 -189 -145 -291 -142 -74 3 -123 24 -223
95 -137 99 -172 138 -193 219 -13 54 -24 59 -42 20z m-1093 -2090 c-4 -10 -9
-39 -12 -66 l-4 -47 -66 5 c-110 9 -138 14 -166 28 -14 8 -23 17 -19 21 4 4 0
4 -10 0 -9 -3 -17 -2 -17 3 0 9 157 60 205 66 17 2 45 5 64 6 28 1 32 -2 25
-16z m3250 -285 c42 -132 62 -223 77 -355 10 -91 9 -96 -11 -118 -16 -17 -18
-25 -9 -30 7 -5 10 -4 5 3 -3 6 -2 13 4 17 16 10 12 -28 -6 -53 -8 -12 -20
-20 -25 -17 -5 3 -6 0 -4 -7 3 -7 -16 -34 -42 -58 -26 -25 -40 -36 -32 -25 13
18 13 19 -3 6 -10 -7 -15 -17 -13 -22 3 -4 -19 -34 -49 -66 -30 -32 -84 -95
-120 -140 -36 -45 -70 -84 -75 -88 -12 -7 -69 17 -97 42 -43 38 -37 138 21
358 13 50 31 137 40 195 19 115 25 132 49 136 20 3 21 11 -10 -82 -20 -61 -26
-99 -26 -166 0 -95 6 -112 64 -177 24 -28 38 -54 38 -71 0 -15 -20 -68 -44
-116 -44 -90 -50 -120 -15 -74 11 14 28 35 38 48 11 12 16 22 13 22 -4 0 -2 4
3 8 22 15 48 91 41 119 -3 15 -8 34 -9 41 -2 7 -20 29 -40 50 -19 20 -41 50
-46 65 -19 49 -9 203 11 191 6 -4 8 2 4 14 -4 11 -1 31 5 46 11 23 18 26 64
26 49 0 55 -3 80 -36 31 -41 68 -148 60 -174 -5 -17 -107 -61 -129 -56 -6 2
-8 1 -4 -1 5 -3 1 -14 -7 -26 -14 -20 -21 -67 -10 -67 3 0 20 16 37 35 23 26
36 34 51 29 13 -4 17 -2 13 5 -6 10 12 16 36 12 4 0 17 12 28 27 30 36 22 97
-23 196 -20 41 -33 77 -31 80 2 3 1 4 -3 1 -3 -3 -18 5 -31 17 -14 13 -22 18
-19 12 7 -12 -80 -40 -91 -29 -7 7 32 60 44 61 5 0 33 24 63 53 53 53 53 53
72 34 11 -11 33 -46 50 -79 35 -71 31 -28 -6 53 -41 91 -63 89 -196 -24 -75
-63 -97 -71 -77 -28 9 21 14 23 26 12 13 -10 14 -9 4 9 -6 12 -7 25 -3 30 5 5
16 31 26 57 10 26 26 52 36 58 10 5 49 36 86 69 37 33 70 60 74 60 3 0 22 -51
43 -112z m-3150 -35 c3 -32 9 -79 12 -105 3 -31 1 -48 -5 -48 -6 0 -11 -7 -11
-16 0 -9 -5 -12 -12 -8 -6 4 -8 3 -5 -3 4 -6 -4 -27 -18 -47 -14 -20 -25 -39
-25 -41 0 -2 -23 -43 -51 -92 -28 -48 -65 -117 -82 -153 -17 -36 -35 -68 -40
-71 -11 -8 -57 -142 -57 -168 0 -12 -2 -13 -8 -3 -5 8 -9 -6 -10 -35 -1 -26
-8 -68 -16 -93 -15 -45 -15 -45 -10 50 15 276 51 481 106 607 33 76 109 203
121 203 5 0 8 3 4 6 -11 11 79 88 93 79 4 -2 10 -30 14 -62z m4146 -69 c30 -8
63 -16 73 -19 24 -5 87 -56 126 -100 17 -20 31 -32 31 -28 1 4 8 -5 17 -22 10
-16 16 -37 14 -45 -2 -12 0 -12 10 -3 9 9 15 8 26 -3 8 -7 12 -18 9 -23 -3 -5
2 -15 12 -22 16 -13 16 -13 2 6 -14 18 -14 19 1 7 15 -11 79 -130 79 -146 0
-16 -61 50 -78 84 -28 57 -236 232 -354 299 -55 31 -78 51 -40 36 9 -4 42 -14
72 -21z m-4036 -449 c9 -31 23 -90 31 -133 17 -102 43 -201 60 -232 14 -27 46
-113 42 -116 -1 -1 -24 28 -51 64 -28 37 -70 87 -94 111 -57 56 -82 99 -81
136 1 51 34 188 47 193 7 2 12 10 12 18 0 32 17 11 34 -41z m2422 -286 c-8
-128 -62 -373 -80 -362 -5 3 -6 1 -2 -5 4 -7 -11 -67 -34 -134 -22 -68 -40
-129 -40 -136 0 -6 -5 -12 -11 -12 -5 0 -8 -4 -4 -10 3 -5 -1 -25 -9 -45 -8
-19 -13 -35 -10 -35 3 0 -9 -20 -27 -45 -30 -41 -50 -62 -33 -32 5 8 2 8 -9
-2 -18 -15 -23 -26 -7 -16 15 10 12 -6 -6 -26 -9 -10 -21 -16 -27 -15 -7 2 -9
1 -4 -1 14 -9 7 -25 -9 -19 -9 3 -12 2 -9 -5 4 -5 -10 -30 -31 -55 -27 -34
-39 -42 -45 -32 -7 10 -9 10 -9 0 0 -7 -4 -10 -10 -7 -5 3 -10 1 -10 -5 0 -7
7 -10 15 -6 26 10 16 -9 -29 -53 -28 -28 -49 -41 -57 -36 -7 5 -10 4 -6 -2 4
-6 -4 -19 -16 -31 -33 -31 -365 -250 -422 -280 -74 -37 -272 -102 -314 -102
-32 0 -39 5 -65 48 -39 62 -160 198 -435 488 -88 92 -129 141 -274 327 -106
136 -198 352 -196 464 0 67 28 148 49 148 9 0 42 -52 82 -128 102 -196 188
-318 302 -432 161 -160 400 -305 343 -209 -7 11 -26 42 -43 67 -18 26 -49 98
-69 160 -48 142 -55 229 -29 372 l18 104 99 78 c55 43 105 83 111 88 28 26
145 103 180 119 48 23 115 16 201 -20 91 -38 284 -109 337 -125 27 -7 49 -20
51 -29 9 -37 7 -208 -3 -260 -16 -77 -98 -337 -121 -382 -23 -45 -24 -68 -3
-68 25 0 100 57 148 113 271 315 330 394 411 549 28 54 55 95 60 91 4 -5 5 -3
1 4 -3 6 2 40 13 75 11 35 23 77 27 93 6 28 9 23 36 -55 26 -76 28 -94 24
-171z m133 -376 l1 -158 -126 -132 c-69 -73 -130 -133 -134 -133 -22 0 42 150
84 198 11 12 17 22 13 22 -3 0 14 41 39 91 55 111 65 132 78 181 5 16 12 26
16 23 5 -3 6 5 2 17 -4 16 -2 19 8 13 9 -5 11 -4 6 3 -7 11 0 32 9 32 2 0 4
-71 4 -157z m-1420 -1320 c22 -76 17 -90 -41 -111 -90 -33 -129 -44 -135 -38
-10 10 -20 82 -13 101 6 17 138 84 167 85 7 0 17 -17 22 -37z m147 -112 c40
-60 42 -66 29 -91 -17 -32 -92 -103 -133 -124 -51 -26 -160 -31 -236 -11 -36
10 -66 21 -66 25 0 4 7 20 15 36 7 15 17 53 21 83 3 31 9 61 13 66 12 21 16
-52 4 -93 -14 -47 -9 -69 15 -76 96 -28 183 -3 255 74 57 62 60 88 15 124 -26
20 -35 37 -44 83 l-11 58 40 -45 c22 -25 59 -74 83 -109z m-366 54 c-12 -15
-46 -157 -57 -241 -5 -40 -5 -41 36 -57 l41 -17 0 -79 c0 -116 28 -307 55
-380 14 -35 22 -68 18 -74 -3 -6 -1 -7 4 -4 10 6 27 -32 19 -41 -5 -5 -93 24
-252 84 -77 29 -162 58 -187 65 -47 11 -117 5 -117 -11 0 -4 15 -3 34 2 26 8
46 7 90 -7 32 -10 53 -22 49 -28 -3 -6 -1 -7 5 -3 7 4 51 -9 99 -28 49 -20
131 -53 183 -74 l95 -39 8 -62 c5 -45 2 -91 -13 -177 -11 -64 -20 -134 -20
-155 0 -22 -5 -39 -10 -39 -19 0 -83 30 -135 62 -102 64 -339 273 -329 290 3
4 1 7 -4 6 -18 -6 -88 69 -119 127 -29 55 -31 66 -26 131 10 128 -59 327 -148
428 -25 28 -41 57 -45 83 l-6 40 73 5 c76 6 292 71 484 146 72 28 158 57 184
61 2 1 -2 -6 -9 -14z m2521 -117 c34 -29 85 -71 113 -92 28 -21 68 -54 90 -74
21 -19 63 -45 92 -59 30 -13 54 -28 54 -32 0 -10 -76 -61 -91 -61 -6 0 -31 14
-56 30 -24 17 -47 30 -51 30 -4 0 -24 14 -45 31 -20 17 -41 27 -47 24 -6 -4
-9 -2 -8 3 2 5 -39 49 -89 97 -96 90 -113 123 -75 144 31 19 50 12 113 -41z
m-183 -60 c116 -84 151 -106 158 -100 4 4 4 2 1 -4 -8 -14 80 -87 95 -78 6 4
8 3 5 -3 -7 -11 71 -89 108 -111 19 -10 18 -13 -20 -44 -22 -18 -77 -68 -122
-111 -80 -78 -83 -79 -105 -64 -80 55 -122 88 -171 130 -34 29 -61 46 -68 41
-7 -4 -9 -3 -5 4 3 6 -10 23 -29 39 -40 31 -72 77 -85 122 -7 25 -4 33 23 59
40 38 170 142 178 142 3 0 20 -10 37 -22z m-2198 -148 c0 -15 -27 -30 -53 -30
-31 0 -29 -14 3 -23 12 -3 31 4 47 16 l26 21 -6 -47 c-8 -54 -42 -107 -69
-107 -10 0 -18 -4 -18 -10 0 -16 46 -11 61 6 12 15 14 14 20 -7 16 -56 10 -96
-20 -128 -33 -35 -47 -39 -55 -13 -5 17 -19 134 -31 263 l-6 66 50 -1 c28 -1
51 -3 51 -6z m2885 -129 c72 -35 171 -90 220 -121 50 -32 144 -85 210 -119 66
-34 128 -70 139 -81 18 -17 17 -18 -20 -44 -21 -14 -42 -26 -47 -26 -4 0 -39
18 -78 40 -39 22 -77 40 -85 40 -8 0 -26 7 -39 16 -13 9 -30 12 -36 8 -7 -4
-9 -3 -5 4 4 6 -4 16 -16 23 -13 7 -54 32 -93 58 -38 25 -111 64 -162 86 -50
23 -113 56 -140 73 -28 18 -55 32 -62 32 -7 0 -11 4 -9 10 4 11 81 70 88 67 3
-1 64 -31 135 -66z m-3611 -271 c2 -97 4 -108 30 -150 16 -25 36 -49 45 -54 9
-5 63 -57 121 -115 132 -133 309 -283 377 -318 29 -16 53 -31 53 -35 0 -5 6
-8 14 -8 12 0 13 -20 9 -117 -3 -65 -6 -119 -7 -120 -5 -6 -135 40 -236 84
-63 27 -140 59 -170 71 -287 109 -319 123 -327 148 -5 14 -4 69 1 122 6 63 5
148 -2 241 -14 191 -8 286 25 391 l27 84 20 -59 c13 -42 19 -92 20 -165z
m3406 170 c47 -35 74 -48 86 -44 12 4 15 3 7 -3 -13 -9 170 -160 188 -155 6 1
8 -2 5 -7 -3 -5 9 -21 26 -36 18 -14 41 -33 51 -41 10 -8 23 -12 29 -8 6 4 8
3 5 -3 -8 -12 50 -67 106 -102 l39 -24 -124 -117 -123 -117 -37 29 c-21 15
-56 42 -78 59 -22 16 -45 27 -52 23 -6 -4 -8 -3 -5 3 9 15 -39 57 -54 48 -7
-5 -10 -4 -6 2 8 12 -113 115 -228 196 -44 31 -96 69 -115 85 l-34 29 49 58
c55 63 175 175 189 175 5 0 39 -23 76 -50z m-3524 -66 c-8 -27 -18 -85 -22
-129 -4 -44 -12 -89 -19 -100 -7 -11 -63 -98 -124 -193 -62 -95 -115 -181
-118 -190 -10 -26 -50 -87 -134 -202 -116 -160 -152 -217 -143 -231 4 -7 3
-10 -3 -6 -13 8 -82 -96 -123 -187 -17 -38 -42 -121 -55 -185 -26 -126 -56
-235 -68 -248 -7 -6 -5 162 6 538 l2 87 50 53 c55 59 157 193 340 449 66 91
134 183 151 205 18 22 52 83 77 135 41 87 78 139 162 226 17 17 31 30 32 29 2
-1 -3 -24 -11 -51z m902 -109 c23 -82 15 -110 -34 -110 -25 0 -31 6 -47 50
-38 100 -39 105 -11 105 17 0 30 9 42 30 20 34 18 36 50 -75z m3452 -96 c0 -5
12 -15 28 -23 15 -8 43 -30 62 -49 19 -20 38 -33 42 -31 5 3 7 2 6 -3 -2 -5
32 -47 76 -94 43 -46 76 -76 72 -66 -3 11 -2 16 4 12 6 -4 9 -12 8 -19 -4 -15
107 -148 116 -139 3 4 6 1 6 -5 0 -15 32 -60 121 -172 104 -130 149 -209 183
-320 15 -52 36 -113 46 -135 l17 -40 -29 -47 -30 -48 -17 22 c-34 45 -60 108
-80 192 -11 47 -27 101 -35 119 -37 89 -246 345 -269 330 -6 -3 -7 -1 -4 4 8
13 -92 135 -105 127 -4 -3 -8 -2 -7 3 3 19 -2 33 -12 33 -5 0 -7 -5 -3 -12 4
-7 3 -8 -5 -4 -6 4 -8 12 -5 18 8 13 -106 129 -119 121 -6 -3 -7 -2 -4 4 3 5
-32 46 -79 92 -46 45 -84 86 -84 91 0 15 71 59 86 53 8 -3 14 -9 14 -14z
m-235 -178 c6 -11 229 -151 238 -151 4 0 25 -18 49 -40 24 -22 49 -38 56 -35
7 3 10 0 7 -5 -4 -6 18 -36 48 -68 97 -101 99 -104 291 -393 59 -90 121 -182
136 -204 32 -47 90 -153 90 -164 0 -4 -26 -52 -59 -107 -32 -54 -74 -129 -94
-165 -20 -36 -43 -66 -51 -66 -8 0 -12 6 -9 13 3 8 -14 49 -37 91 -23 43 -61
114 -85 158 -61 116 -121 210 -132 208 -5 -1 -10 4 -10 11 0 17 -63 109 -70
102 -3 -3 0 -14 8 -23 13 -16 12 -17 -4 -4 -10 8 -15 21 -12 29 3 8 -24 55
-65 111 -66 90 -142 184 -125 152 6 -9 4 -12 -4 -7 -6 4 -9 11 -7 15 6 9 -50
64 -105 104 -39 29 -54 34 -43 15 4 -7 4 -10 0 -6 -4 3 -6 9 -4 13 2 3 -22 22
-52 40 -137 85 -219 141 -219 150 -1 16 223 235 241 235 9 0 19 -4 23 -9z
m-3341 -1071 c6 0 21 7 32 15 21 14 21 13 27 -59 4 -40 4 -126 0 -192 l-6
-119 -60 -67 c-33 -38 -66 -68 -74 -68 -8 0 -32 9 -53 19 -48 23 -52 13 -9
-23 50 -42 84 -36 141 27 l49 52 -7 -122 -7 -122 -67 -72 c-72 -77 -76 -78
-158 -53 -9 3 -3 -6 13 -20 20 -17 42 -26 65 -26 30 -1 42 7 87 57 l52 58 -6
-110 -6 -109 -55 -51 c-75 -68 -76 -69 -122 -45 -22 11 -40 16 -40 11 0 -17
61 -61 86 -61 25 0 100 68 115 105 5 13 8 -14 8 -72 l1 -91 -47 -17 c-27 -9
-79 -19 -117 -22 l-69 -6 6 229 c3 126 13 290 22 364 14 124 63 420 71 429 1
2 17 -13 33 -32 56 -63 109 -54 142 24 18 46 1 48 -36 5 l-33 -39 -48 34 c-27
18 -50 34 -52 35 -2 1 3 13 11 26 8 12 21 50 27 83 7 33 14 63 16 67 3 4 16
-4 31 -18 14 -13 31 -24 37 -24z m-1629 -168 c6 -165 5 -175 -20 -254 -14 -46
-44 -130 -67 -186 -30 -76 -38 -106 -29 -111 9 -6 8 -11 -4 -21 -13 -11 -15
-10 -9 4 12 31 -6 16 -20 -18 -16 -39 -53 -75 -107 -105 l-38 -22 29 70 c39
96 125 358 150 461 12 47 36 121 55 165 19 44 37 106 41 138 4 32 8 56 10 54
2 -1 6 -80 9 -175z m5951 -89 c-19 -43 -58 -136 -87 -207 -40 -99 -54 -125
-60 -110 -4 10 -26 61 -48 112 l-41 93 72 127 c39 70 82 146 96 170 l24 43 39
-75 39 -75 -34 -78z m-1807 -188 c153 -94 142 -80 158 -197 8 -57 29 -149 48
-205 33 -100 118 -280 170 -362 14 -23 23 -47 19 -53 -4 -6 -3 -8 3 -5 5 3 24
-23 41 -59 l32 -65 -33 33 c-94 95 -202 228 -299 373 -61 90 -258 545 -258
594 0 17 6 14 119 -54z m-3957 -182 l39 -17 -6 -86 c-10 -150 -39 -450 -42
-447 -11 12 -105 546 -97 558 9 15 64 10 106 -8z"/>
<path d="M6036 3858 c-63 -12 -176 -64 -253 -116 -80 -55 -173 -140 -173 -160
0 -11 11 -5 38 20 50 48 242 165 322 196 56 22 81 25 187 26 129 1 152 12 72
33 -53 14 -126 14 -193 1z"/>
</g>
</svg>
